<?xml version="1.0" standalone="no"?>
<!DOCTYPE svg PUBLIC "-//W3C//DTD SVG 20010904//EN"
 "http://www.w3.org/TR/2001/REC-SVG-20010904/DTD/svg10.dtd">
<svg version="1.0" xmlns="http://www.w3.org/2000/svg"
 width="180.000000pt" height="180.000000pt" viewBox="0 0 180.000000 180.000000"
 preserveAspectRatio="xMidYMid meet">
<metadata>
Created by potrace 1.14, written by Peter Selinger 2001-2017
</metadata>
<g transform="translate(0.000000,180.000000) scale(0.100000,-0.100000)"
fill="#000000" stroke="none">
<path d="M627 1732 c-13 -15 -17 -39 -17 -115 0 -91 1 -96 26 -116 23 -18 41
-21 125 -21 114 0 119 -4 119 -94 0 -30 5 -58 11 -62 6 -4 44 -6 83 -5 87 2
96 11 96 98 0 72 6 78 79 77 64 -1 81 -26 81 -119 0 -99 -6 -104 -151 -110
-92 -4 -116 -8 -126 -22 -9 -11 -13 -55 -13 -128 0 -157 -2 -155 154 -155 159
0 156 -2 156 146 0 60 4 115 8 122 12 18 69 32 133 32 80 0 89 13 89 128 0
114 -8 122 -120 122 -101 0 -112 9 -118 91 -5 78 -16 89 -92 89 -81 0 -100
-16 -100 -89 0 -74 -17 -91 -87 -91 -70 0 -83 17 -83 109 0 69 -11 108 -34
123 -6 4 -54 8 -107 8 -80 0 -99 -3 -112 -18z"/>
<path d="M327 1472 c-13 -14 -17 -38 -17 -98 0 -105 -8 -116 -91 -122 -35 -2
-70 -9 -76 -14 -8 -7 -13 -36 -13 -79 0 -87 11 -99 90 -99 70 0 90 -19 90 -85
0 -71 -16 -82 -121 -87 -82 -3 -93 -5 -111 -28 -17 -21 -19 -36 -16 -111 4
-122 12 -129 138 -129 130 0 135 5 135 142 0 117 8 128 90 128 28 0 56 5 63
12 7 7 12 40 12 79 0 88 -11 99 -95 99 -53 0 -66 3 -75 19 -16 31 -12 87 9
112 16 20 30 24 94 27 66 4 77 2 96 -17 19 -19 21 -33 21 -126 0 -144 2 -145
155 -145 155 0 155 0 155 155 0 154 -1 155 -148 155 -142 0 -146 3 -150 112
-5 113 -10 118 -127 118 -76 0 -95 -3 -108 -18z"/>
<path d="M1490 1190 c-17 -17 -20 -33 -20 -119 0 -121 -7 -131 -85 -131 -71 0
-85 -15 -85 -88 0 -87 15 -102 99 -102 78 0 81 -3 81 -80 0 -66 -21 -80 -115
-80 -106 0 -109 4 -113 144 -5 147 -4 146 -153 146 -157 0 -156 1 -151 -192 3
-117 4 -118 140 -118 144 0 147 -3 155 -117 7 -118 18 -128 137 -119 112 9
120 18 120 131 0 99 5 105 95 113 36 2 69 10 72 16 4 5 6 42 5 81 -3 85 -13
95 -92 95 -31 0 -61 5 -68 12 -14 14 -16 116 -2 138 6 10 36 16 105 20 122 6
125 9 125 137 0 127 -6 133 -135 133 -82 0 -98 -3 -115 -20z"/>
<path d="M570 850 c-18 -18 -20 -33 -20 -134 0 -92 -3 -116 -16 -127 -9 -7
-53 -15 -98 -18 -111 -8 -116 -13 -116 -120 0 -123 7 -131 116 -131 108 0 124
-13 124 -98 0 -32 5 -63 12 -70 15 -15 132 -16 159 -2 15 9 19 22 19 70 0 78
20 100 88 100 67 0 78 -16 85 -116 8 -124 8 -124 130 -124 110 0 117 3 137 39
12 24 6 175 -8 198 -17 25 -54 34 -125 27 -43 -3 -83 -2 -99 5 -25 9 -28 15
-28 60 0 27 -4 61 -10 75 -9 25 -13 26 -84 26 -91 0 -102 -10 -98 -89 1 -31
-2 -62 -7 -70 -5 -7 -31 -16 -58 -18 -37 -4 -53 -1 -72 14 -21 17 -24 28 -25
102 -1 107 3 111 139 111 146 0 145 -1 145 154 0 160 4 156 -153 156 -104 0
-119 -2 -137 -20z"/>
</g>
</svg>
